<svg width="29" height="31" viewBox="0 0 29 31" fill="none" xmlns="http://www.w3.org/2000/svg">
<path d="M14.4998 9.42157C10.902 9.42157 7.97278 11.6765 7.97278 14.4461C7.97278 17.2157 10.902 19.4706 14.4998 19.4706C18.0977 19.4706 21.0269 17.2157 21.0269 14.4461C21.0269 11.6765 18.0977 9.42157 14.4998 9.42157ZM18.7663 15.402C18.7663 15.4755 18.7026 15.5245 18.6071 15.5245H16.0918C15.9963 15.5245 15.9326 15.5735 15.9326 15.6471V17.5833C15.9326 17.6569 15.8689 17.7059 15.7734 17.7059H13.2581C13.1626 17.7059 13.0989 17.6569 13.0989 17.5833V15.6471C13.0989 15.5735 13.0352 15.5245 12.9397 15.5245H10.4244C10.3289 15.5245 10.2652 15.4755 10.2652 15.402V13.4657C10.2652 13.3922 10.3289 13.3431 10.4244 13.3431H12.9079C13.0034 13.3431 13.0671 13.2941 13.0671 13.2206V11.2843C13.0671 11.2108 13.1307 11.1618 13.2263 11.1618H15.7416C15.8371 11.1618 15.9008 11.2108 15.9008 11.2843V13.2206C15.9008 13.2941 15.9644 13.3431 16.0599 13.3431H18.5752C18.6708 13.3431 18.7344 13.3922 18.7344 13.4657V15.402H18.7663Z" fill="#292D32"/>
<path d="M6.15796 4.62255H6.40796V4.59804H22.8417C24.0009 4.59804 25.0447 4.9623 25.7935 5.53879C26.5423 6.11519 26.9855 6.893 26.9855 7.73039V26.5294C26.9855 27.3668 26.5423 28.1446 25.7935 28.721C25.0447 29.2975 24.0009 29.6618 22.8417 29.6618H6.15796C4.9988 29.6618 3.95501 29.2975 3.20613 28.721C2.45735 28.1446 2.01414 27.3668 2.01414 26.5294V7.7549C2.01414 6.91751 2.45735 6.1397 3.20613 5.5633C3.95501 4.98681 4.9988 4.62255 6.15796 4.62255ZM6.15796 30.75H22.8417C24.324 30.75 25.6762 30.2939 26.6593 29.5403C27.6425 28.7867 28.2663 27.7253 28.2497 26.5277V7.73039C28.2497 5.35492 25.7817 3.5098 22.8417 3.5098H6.15796C4.69092 3.5098 3.34684 3.9663 2.36425 4.71948C1.38125 5.47297 0.75 6.5336 0.75 7.73039V26.5294C0.75 28.9049 3.21801 30.75 6.15796 30.75Z" fill="#292D32" stroke="#292D32" stroke-width="0.5"/>
<mask id="path-3-inside-1_546_78" fill="white">
<path d="M22.8417 26.8235H6.15795C5.93508 26.8235 5.77588 26.6765 5.77588 26.5294C5.77588 26.3824 5.96691 26.2353 6.15795 26.2353H22.8417C23.0646 26.2353 23.2238 26.3824 23.2238 26.5294C23.2238 26.6765 23.0646 26.8235 22.8417 26.8235Z"/>
</mask>
<path d="M22.8417 26.8235H6.15795C5.93508 26.8235 5.77588 26.6765 5.77588 26.5294C5.77588 26.3824 5.96691 26.2353 6.15795 26.2353H22.8417C23.0646 26.2353 23.2238 26.3824 23.2238 26.5294C23.2238 26.6765 23.0646 26.8235 22.8417 26.8235Z" fill="#292D32"/>
<path d="M22.8417 24.8235H6.15795V28.8235H22.8417V24.8235ZM6.15795 24.8235C6.48589 24.8235 6.84174 24.9326 7.14693 25.1813C7.43229 25.4139 7.77588 25.8698 7.77588 26.5294H3.77588C3.77588 28.1439 5.23217 28.8235 6.15795 28.8235V24.8235ZM7.77588 26.5294C7.77588 27.3135 7.31104 27.7613 7.11526 27.912C6.87574 28.0964 6.55006 28.2353 6.15795 28.2353V24.2353C5.5748 24.2353 5.05809 24.4477 4.67529 24.7424C4.33623 25.0034 3.77588 25.5983 3.77588 26.5294H7.77588ZM6.15795 28.2353H22.8417V24.2353H6.15795V28.2353ZM22.8417 28.2353C22.5138 28.2353 22.1579 28.1262 21.8527 27.8775C21.5674 27.6449 21.2238 27.189 21.2238 26.5294H25.2238C25.2238 24.915 23.7675 24.2353 22.8417 24.2353V28.2353ZM21.2238 26.5294C21.2238 25.8698 21.5674 25.4139 21.8527 25.1813C22.1579 24.9326 22.5138 24.8235 22.8417 24.8235V28.8235C23.7675 28.8235 25.2238 28.1439 25.2238 26.5294H21.2238Z" fill="#292D32" mask="url(#path-3-inside-1_546_78)"/>
<mask id="path-5-inside-2_546_78" fill="white">
<path d="M22.8417 24.3725H6.15795C5.93508 24.3725 5.77588 24.2255 5.77588 24.0784C5.77588 23.9314 5.96691 23.7843 6.15795 23.7843H22.8417C23.0646 23.7843 23.2238 23.9314 23.2238 24.0784C23.2238 24.2255 23.0646 24.3725 22.8417 24.3725Z"/>
</mask>
<path d="M22.8417 24.3725H6.15795C5.93508 24.3725 5.77588 24.2255 5.77588 24.0784C5.77588 23.9314 5.96691 23.7843 6.15795 23.7843H22.8417C23.0646 23.7843 23.2238 23.9314 23.2238 24.0784C23.2238 24.2255 23.0646 24.3725 22.8417 24.3725Z" fill="#292D32"/>
<path d="M22.8417 22.3725H6.15795V26.3725H22.8417V22.3725ZM6.15795 22.3725C6.48589 22.3725 6.84174 22.4816 7.14693 22.7304C7.43229 22.963 7.77588 23.4188 7.77588 24.0784H3.77588C3.77588 25.6929 5.23217 26.3725 6.15795 26.3725V22.3725ZM7.77588 24.0784C7.77588 24.8625 7.31104 25.3103 7.11526 25.461C6.87574 25.6454 6.55006 25.7843 6.15795 25.7843V21.7843C5.5748 21.7843 5.05809 21.9967 4.67529 22.2914C4.33623 22.5524 3.77588 23.1473 3.77588 24.0784H7.77588ZM6.15795 25.7843H22.8417V21.7843H6.15795V25.7843ZM22.8417 25.7843C22.5138 25.7843 22.1579 25.6752 21.8527 25.4265C21.5674 25.1939 21.2238 24.7381 21.2238 24.0784H25.2238C25.2238 22.464 23.7675 21.7843 22.8417 21.7843V25.7843ZM21.2238 24.0784C21.2238 23.4188 21.5674 22.963 21.8527 22.7304C22.1579 22.4816 22.5138 22.3725 22.8417 22.3725V26.3725C23.7675 26.3725 25.2238 25.6929 25.2238 24.0784H21.2238Z" fill="#292D32" mask="url(#path-5-inside-2_546_78)"/>
<mask id="path-7-inside-3_546_78" fill="white">
<path d="M22.8417 21.9216H6.15795C5.93508 21.9216 5.77588 21.7745 5.77588 21.6274C5.77588 21.4804 5.96691 21.3333 6.15795 21.3333H22.8417C23.0646 21.3333 23.2238 21.4804 23.2238 21.6274C23.2238 21.7745 23.0646 21.9216 22.8417 21.9216Z"/>
</mask>
<path d="M22.8417 21.9216H6.15795C5.93508 21.9216 5.77588 21.7745 5.77588 21.6274C5.77588 21.4804 5.96691 21.3333 6.15795 21.3333H22.8417C23.0646 21.3333 23.2238 21.4804 23.2238 21.6274C23.2238 21.7745 23.0646 21.9216 22.8417 21.9216Z" fill="#292D32"/>
<path d="M22.8417 19.9216H6.15795V23.9216H22.8417V19.9216ZM6.15795 19.9216C6.48589 19.9216 6.84174 20.0306 7.14693 20.2794C7.43229 20.512 7.77588 20.9678 7.77588 21.6274H3.77588C3.77588 23.2419 5.23217 23.9216 6.15795 23.9216V19.9216ZM7.77588 21.6274C7.77588 22.4115 7.31104 22.8593 7.11526 23.0101C6.87574 23.1944 6.55006 23.3333 6.15795 23.3333V19.3333C5.5748 19.3333 5.05809 19.5458 4.67529 19.8404C4.33623 20.1014 3.77588 20.6963 3.77588 21.6274H7.77588ZM6.15795 23.3333H22.8417V19.3333H6.15795V23.3333ZM22.8417 23.3333C22.5138 23.3333 22.1579 23.2243 21.8527 22.9755C21.5674 22.7429 21.2238 22.2871 21.2238 21.6274H25.2238C25.2238 20.013 23.7675 19.3333 22.8417 19.3333V23.3333ZM21.2238 21.6274C21.2238 20.9678 21.5674 20.512 21.8527 20.2794C22.1579 20.0306 22.5138 19.9216 22.8417 19.9216V23.9216C23.7675 23.9216 25.2238 23.2419 25.2238 21.6274H21.2238Z" fill="#292D32" mask="url(#path-7-inside-3_546_78)"/>
<path d="M16.6331 4.05392V2.41176C16.6331 1.52941 15.6779 0.794117 14.4999 0.794117C13.3218 0.794117 12.3666 1.52941 12.3666 2.43627V4.07843H8.13202V5.69608C8.13202 6.60294 9.0872 7.33824 10.2652 7.33824H18.7663C19.9444 7.33824 20.8996 6.60294 20.8996 5.69608V4.05392H16.6331ZM14.4999 3.36765C13.8312 3.36765 13.29 2.95098 13.29 2.43627C13.29 1.94608 13.8312 1.52941 14.4999 1.52941C15.1685 1.52941 15.7098 1.94608 15.7098 2.46078C15.7098 2.95098 15.1685 3.36765 14.4999 3.36765Z" fill="#292D32"/>
<path d="M13 11.5V13.5H10.5V15.5H13V17.5H16V15.5H18.5V13.5H16V11.5H13Z" stroke="#292D32"/>
<mask id="path-11-inside-4_546_78" fill="white">
<path d="M18.7345 7.63235H10.2652C8.86431 7.63235 7.74994 6.75 7.74994 5.69608V4.05392C7.74994 3.88235 7.94097 3.7598 8.13201 3.7598H11.9846V2.43627C11.9846 1.35784 13.1308 0.5 14.4999 0.5C15.8689 0.5 17.0152 1.38235 17.0152 2.43627V3.7598H20.8677C21.0906 3.7598 21.2498 3.90686 21.2498 4.05392V5.69608C21.2498 6.77451 20.1354 7.63235 18.7345 7.63235ZM8.51408 4.37255V5.69608C8.51408 6.43137 9.27822 7.01961 10.2334 7.01961H18.7345C19.6897 7.01961 20.4538 6.43137 20.4538 5.69608V4.37255H16.6331C16.4102 4.37255 16.251 4.22549 16.251 4.07843V2.43627C16.251 1.70098 15.4869 1.11275 14.5317 1.11275C13.5765 1.11275 12.8124 1.70098 12.8124 2.43627V4.07843C12.8124 4.25 12.6213 4.37255 12.4303 4.37255H8.51408Z"/>
</mask>
<path d="M18.7345 7.63235H10.2652C8.86431 7.63235 7.74994 6.75 7.74994 5.69608V4.05392C7.74994 3.88235 7.94097 3.7598 8.13201 3.7598H11.9846V2.43627C11.9846 1.35784 13.1308 0.5 14.4999 0.5C15.8689 0.5 17.0152 1.38235 17.0152 2.43627V3.7598H20.8677C21.0906 3.7598 21.2498 3.90686 21.2498 4.05392V5.69608C21.2498 6.77451 20.1354 7.63235 18.7345 7.63235ZM8.51408 4.37255V5.69608C8.51408 6.43137 9.27822 7.01961 10.2334 7.01961H18.7345C19.6897 7.01961 20.4538 6.43137 20.4538 5.69608V4.37255H16.6331C16.4102 4.37255 16.251 4.22549 16.251 4.07843V2.43627C16.251 1.70098 15.4869 1.11275 14.5317 1.11275C13.5765 1.11275 12.8124 1.70098 12.8124 2.43627V4.07843C12.8124 4.25 12.6213 4.37255 12.4303 4.37255H8.51408Z" fill="#292D32"/>
<path d="M11.9846 3.7598V5.7598H13.9846V3.7598H11.9846ZM17.0152 3.7598H15.0152V5.7598H17.0152V3.7598ZM8.51408 4.37255V2.37255H6.51408V4.37255H8.51408ZM20.4538 4.37255H22.4538V2.37255H20.4538V4.37255ZM18.7345 5.63235H10.2652V9.63235H18.7345V5.63235ZM10.2652 5.63235C9.97375 5.63235 9.7849 5.5388 9.70892 5.47979C9.63166 5.4198 9.74994 5.47675 9.74994 5.69608H5.74994C5.74994 8.29572 8.25985 9.63235 10.2652 9.63235V5.63235ZM9.74994 5.69608V4.05392H5.74994V5.69608H9.74994ZM9.74994 4.05392C9.74994 4.77562 9.33914 5.24664 9.04542 5.46018C8.75775 5.66933 8.43688 5.7598 8.13201 5.7598V1.7598C7.63611 1.7598 7.1242 1.91155 6.69325 2.22487C6.25626 2.54257 5.74994 3.16065 5.74994 4.05392H9.74994ZM8.13201 5.7598H11.9846V1.7598H8.13201V5.7598ZM13.9846 3.7598V2.43627H9.98456V3.7598H13.9846ZM13.9846 2.43627C13.9846 2.53058 13.9575 2.60657 13.9336 2.64958C13.9128 2.68709 13.9049 2.68202 13.9421 2.65367C14.0241 2.5911 14.2183 2.5 14.4999 2.5V-1.5C13.4123 -1.5 12.3489 -1.16218 11.5155 -0.526218C10.6793 0.111869 9.98456 1.13933 9.98456 2.43627H13.9846ZM14.4999 2.5C14.7679 2.5 14.9621 2.58937 15.0509 2.65773C15.1445 2.72978 15.0152 2.67516 15.0152 2.43627H19.0152C19.0152 1.14346 18.3127 0.120707 17.4909 -0.511897C16.6643 -1.14819 15.6009 -1.5 14.4999 -1.5V2.5ZM15.0152 2.43627V3.7598H19.0152V2.43627H15.0152ZM17.0152 5.7598H20.8677V1.7598H17.0152V5.7598ZM20.8677 5.7598C20.5398 5.7598 20.1839 5.65074 19.8787 5.40198C19.5934 5.16938 19.2498 4.71354 19.2498 4.05392H23.2498C23.2498 2.43949 21.7935 1.7598 20.8677 1.7598V5.7598ZM19.2498 4.05392V5.69608H23.2498V4.05392H19.2498ZM19.2498 5.69608C19.2498 5.6123 19.2733 5.54118 19.2973 5.4972C19.3185 5.45816 19.329 5.45954 19.2975 5.48382C19.2282 5.53716 19.0395 5.63235 18.7345 5.63235V9.63235C20.722 9.63235 23.2498 8.33401 23.2498 5.69608H19.2498ZM6.51408 4.37255V5.69608H10.5141V4.37255H6.51408ZM6.51408 5.69608C6.51408 7.99087 8.69159 9.01961 10.2334 9.01961V5.01961C10.1536 5.01961 10.1633 4.99313 10.2355 5.04877C10.3129 5.1083 10.5141 5.32255 10.5141 5.69608H6.51408ZM10.2334 9.01961H18.7345V5.01961H10.2334V9.01961ZM18.7345 9.01961C20.2763 9.01961 22.4538 7.99087 22.4538 5.69608H18.4538C18.4538 5.32255 18.655 5.1083 18.7323 5.04877C18.8046 4.99313 18.8143 5.01961 18.7345 5.01961V9.01961ZM22.4538 5.69608V4.37255H18.4538V5.69608H22.4538ZM20.4538 2.37255H16.6331V6.37255H20.4538V2.37255ZM16.6331 2.37255C16.961 2.37255 17.3169 2.48162 17.6221 2.73037C17.9074 2.96297 18.251 3.41882 18.251 4.07843H14.251C14.251 5.69286 15.7073 6.37255 16.6331 6.37255V2.37255ZM18.251 4.07843V2.43627H14.251V4.07843H18.251ZM18.251 2.43627C18.251 0.141478 16.0735 -0.887255 14.5317 -0.887255V3.11275C14.6115 3.11275 14.6018 3.13922 14.5296 3.08359C14.4522 3.02405 14.251 2.8098 14.251 2.43627H18.251ZM14.5317 -0.887255C12.9899 -0.887255 10.8124 0.14148 10.8124 2.43627H14.8124C14.8124 2.8098 14.6112 3.02405 14.5338 3.08359C14.4616 3.13922 14.4519 3.11275 14.5317 3.11275V-0.887255ZM10.8124 2.43627V4.07843H14.8124V2.43627H10.8124ZM10.8124 4.07843C10.8124 3.35673 11.2232 2.88571 11.5169 2.67217C11.8046 2.46302 12.1254 2.37255 12.4303 2.37255V6.37255C12.9262 6.37255 13.4381 6.2208 13.8691 5.90749C14.3061 5.58978 14.8124 4.9717 14.8124 4.07843H10.8124ZM12.4303 2.37255H8.51408V6.37255H12.4303V2.37255Z" fill="#292D32" mask="url(#path-11-inside-4_546_78)"/>
<path d="M14.4999 3.68627C13.6084 3.68627 12.9079 3.14706 12.9079 2.46078C12.9079 1.77451 13.6084 1.23529 14.4999 1.23529C15.3914 1.23529 16.0918 1.77451 16.0918 2.46078C16.0918 3.14706 15.3914 3.68627 14.4999 3.68627ZM14.4999 1.82353C14.0541 1.82353 13.7039 2.09314 13.7039 2.43627C13.7039 2.77941 14.0541 3.04902 14.4999 3.04902C14.9456 3.04902 15.2958 2.77941 15.2958 2.43627C15.2958 2.09314 14.9456 1.82353 14.4999 1.82353Z" fill="#292D32"/>
<mask id="path-14-inside-5_546_78" fill="white">
<path d="M14.4999 19.7647C10.6791 19.7647 7.5589 17.3627 7.5589 14.4216C7.5589 11.4804 10.6791 9.10294 14.4999 9.10294C18.3206 9.10294 21.4408 11.5049 21.4408 14.4461C21.4408 17.3873 18.3206 19.7647 14.4999 19.7647ZM14.4999 9.71569C11.1249 9.71569 8.38672 11.8235 8.38672 14.4216C8.38672 17.0196 11.1249 19.152 14.4999 19.152C17.8748 19.152 20.613 17.0441 20.613 14.4461C20.613 11.848 17.8748 9.71569 14.4999 9.71569Z"/>
</mask>
<path d="M14.4999 19.7647C10.6791 19.7647 7.5589 17.3627 7.5589 14.4216C7.5589 11.4804 10.6791 9.10294 14.4999 9.10294C18.3206 9.10294 21.4408 11.5049 21.4408 14.4461C21.4408 17.3873 18.3206 19.7647 14.4999 19.7647ZM14.4999 9.71569C11.1249 9.71569 8.38672 11.8235 8.38672 14.4216C8.38672 17.0196 11.1249 19.152 14.4999 19.152C17.8748 19.152 20.613 17.0441 20.613 14.4461C20.613 11.848 17.8748 9.71569 14.4999 9.71569Z" fill="#292D32"/>
<path d="M14.4999 17.7647C12.9958 17.7647 11.6978 17.2896 10.8166 16.6113C9.93604 15.9334 9.5589 15.1397 9.5589 14.4216H5.5589C5.5589 16.6446 6.74188 18.5225 8.37662 19.7809C10.0108 21.0388 12.1832 21.7647 14.4999 21.7647V17.7647ZM9.5589 14.4216C9.5589 13.7057 9.93372 12.9195 10.8117 12.2479C11.6916 11.5748 12.9909 11.1029 14.4999 11.1029V7.10294C12.1881 7.10294 10.0169 7.81979 8.38149 9.07077C6.7442 10.3232 5.5589 12.1963 5.5589 14.4216H9.5589ZM14.4999 11.1029C16.0039 11.1029 17.3019 11.5781 18.1831 12.2564C19.0637 12.9342 19.4408 13.7279 19.4408 14.4461H23.4408C23.4408 12.2231 22.2578 10.3452 20.6231 9.08676C18.9889 7.8288 16.8165 7.10294 14.4999 7.10294V11.1029ZM19.4408 14.4461C19.4408 15.162 19.066 15.9482 18.188 16.6198C17.3081 17.2928 16.0088 17.7647 14.4999 17.7647V21.7647C16.8116 21.7647 18.9828 21.0479 20.6182 19.7969C22.2555 18.5445 23.4408 16.6713 23.4408 14.4461H19.4408ZM14.4999 7.71569C12.4088 7.71569 10.4426 8.36648 8.95769 9.50955C7.47077 10.6542 6.38672 12.3737 6.38672 14.4216H10.3867C10.3867 13.8714 10.6718 13.238 11.3977 12.6792C12.1256 12.1188 13.216 11.7157 14.4999 11.7157V7.71569ZM6.38672 14.4216C6.38672 18.5678 10.5236 21.152 14.4999 21.152V17.152C11.7262 17.152 10.3867 15.4714 10.3867 14.4216H6.38672ZM14.4999 21.152C16.5909 21.152 18.5571 20.5012 20.042 19.3581C21.5289 18.2135 22.613 16.4939 22.613 14.4461H18.613C18.613 14.9963 18.328 15.6297 17.602 16.1885C16.8741 16.7488 15.7837 17.152 14.4999 17.152V21.152ZM22.613 14.4461C22.613 10.2998 18.4761 7.71569 14.4999 7.71569V11.7157C17.2735 11.7157 18.613 13.3962 18.613 14.4461H22.613Z" fill="#292D32" mask="url(#path-14-inside-5_546_78)"/>
</svg>
