<svg width="250" height="240" viewBox="0 0 250 240" fill="none" xmlns="http://www.w3.org/2000/svg">
<g filter="url(#filter0_d_73_25)">
<rect x="4.5" y="0.5" width="241" height="231" rx="7.5" fill="#3AE365" stroke="#3AE365"/>
<g clip-path="url(#clip0_73_25)">
<path d="M106.851 78.1036L107.491 78.0501C107.723 78.0251 107.945 77.9439 108.136 77.8138L108.131 77.8183C108.744 79.878 109.494 82.0448 110.431 84.314C111.633 87.2833 112.817 89.722 114.143 92.076L113.96 91.7193C113.85 93.3422 113.718 95.0096 113.544 96.6235C113.468 97.5757 113.27 98.5148 112.954 99.4189L112.977 99.3386C112.922 99.3609 112.844 108.612 112.844 108.612C112.846 111.482 113.838 114.269 115.661 116.523C117.483 118.777 120.031 120.367 122.892 121.037L122.984 121.055C123.111 120.733 123.335 120.456 123.626 120.261C123.917 120.065 124.262 119.96 124.616 119.958H127.24C127.59 119.963 127.932 120.068 128.221 120.261C128.51 120.454 128.735 120.725 128.867 121.042L128.872 121.055C131.758 120.405 134.334 118.823 136.184 116.566C138.033 114.309 139.047 111.51 139.062 108.621V108.616C139.062 108.616 138.902 99.4055 138.819 99.3431C138.547 98.4813 138.36 97.596 138.262 96.6993L138.257 96.6324C138.097 95.0096 137.992 93.3823 137.841 91.7283C138.97 89.7398 140.154 87.3056 141.196 84.7955L141.37 84.323C142.307 82.0537 143.034 79.8914 143.67 77.8272C143.857 77.9572 144.076 78.0385 144.305 78.0635H144.31L144.954 78.117C145.731 78.1972 146.417 77.573 146.481 76.6056L147.176 67.9965V67.9876C147.175 67.6412 147.046 67.3067 146.811 67.0467C146.576 66.7866 146.253 66.6187 145.9 66.5743H145.814C146.422 62.0914 146.045 57.5335 144.707 53.2038L144.767 53.4312C143.477 50.639 141.516 48.1914 139.05 46.2961C136.584 44.4007 133.685 43.1136 130.6 42.5439L130.481 42.5261C128.985 42.2336 127.467 42.0666 125.942 42.0268H125.846C124.25 42.0546 122.661 42.2308 121.1 42.5528L121.265 42.5261C118.182 43.0843 115.28 44.3547 112.803 46.231C110.327 48.1074 108.347 50.535 107.03 53.3108L106.979 53.4312C105.663 57.7442 105.312 62.2826 105.951 66.7393L105.932 66.5743C105.579 66.6116 105.252 66.7745 105.015 67.032C104.777 67.2894 104.645 67.6233 104.643 67.9698V68.001L105.338 76.61C105.402 77.5998 106.097 78.1972 106.847 78.117L106.851 78.1036Z" fill="white"/>
<path d="M174.902 135.081C174.582 121.528 173.192 118.46 172.442 116.383C172.145 115.549 171.903 109.914 162.358 106.258C156.506 104.011 148.954 103.966 142.564 101.331V108.661C142.557 112.419 141.211 116.057 138.755 118.952C136.3 121.848 132.888 123.821 129.105 124.533L129 124.551C128.932 124.946 128.723 125.305 128.41 125.566C128.098 125.827 127.702 125.972 127.29 125.977H127.208V131.505C127.208 134.1 128.265 136.588 130.146 138.422C132.027 140.257 134.578 141.287 137.238 141.287C139.898 141.287 142.449 140.257 144.33 138.422C146.211 136.588 147.268 134.1 147.268 131.505V127.645C145.887 127.447 144.628 126.763 143.73 125.722C142.832 124.681 142.356 123.354 142.392 121.994C142.429 120.633 142.975 119.333 143.928 118.339C144.881 117.345 146.175 116.726 147.564 116.6C148.953 116.473 150.342 116.847 151.468 117.652C152.593 118.456 153.377 119.635 153.672 120.965C153.966 122.295 153.751 123.684 153.066 124.87C152.381 126.056 151.275 126.956 149.956 127.399L149.914 127.413V131.715C149.914 134.995 148.578 138.141 146.2 140.46C143.822 142.779 140.596 144.082 137.233 144.082C133.87 144.082 130.645 142.779 128.266 140.46C125.888 138.141 124.552 134.995 124.552 131.715V131.492V131.501V125.924C124.161 125.898 123.79 125.743 123.499 125.486C123.209 125.229 123.016 124.883 122.952 124.506V124.497C119.165 123.793 115.747 121.826 113.283 118.933C110.819 116.041 109.464 112.403 109.448 108.643V101.256C103.03 103.944 95.4321 103.998 89.5487 106.249C79.9761 109.9 79.7567 115.522 79.4641 116.369C78.7327 118.456 77.3247 121.51 77.0047 135.072C76.9498 136.855 77.0047 139.588 82.5178 141.978C94.5224 146.57 109.988 147.997 125.233 149.022H126.696C141.974 148.006 157.416 146.584 169.412 141.978C174.902 139.602 174.952 136.887 174.902 135.086V135.081ZM107.789 129.553H102.093V135.13H98.0241V129.571H92.3281V125.603H98.0241V120.048H102.093V125.603H107.789V129.553Z" fill="white"/>
<path d="M151.171 122.094V122.09C151.171 121.294 150.846 120.531 150.269 119.969C149.692 119.407 148.91 119.091 148.094 119.091C147.278 119.092 146.496 119.408 145.919 119.97C145.342 120.533 145.018 121.296 145.018 122.092C145.018 122.887 145.342 123.65 145.919 124.213C146.496 124.776 147.278 125.092 148.094 125.092C148.91 125.092 149.692 124.777 150.269 124.215C150.846 123.652 151.171 122.89 151.171 122.094Z" fill="white"/>
</g>
<path d="M92.0256 191H85.5803V172.818H92.0788C93.9077 172.818 95.482 173.182 96.8018 173.91C98.1217 174.632 99.1367 175.671 99.8469 177.026C100.563 178.382 100.921 180.003 100.921 181.891C100.921 183.785 100.563 185.413 99.8469 186.774C99.1367 188.135 98.1158 189.18 96.7841 189.908C95.4583 190.636 93.8722 191 92.0256 191ZM89.4244 187.706H91.8658C93.0021 187.706 93.958 187.505 94.7333 187.103C95.5146 186.694 96.1005 186.064 96.4911 185.212C96.8877 184.353 97.0859 183.247 97.0859 181.891C97.0859 180.548 96.8877 179.45 96.4911 178.598C96.1005 177.745 95.5175 177.118 94.7422 176.716C93.9669 176.313 93.011 176.112 91.8746 176.112H89.4244V187.706ZM109.859 191.266C108.48 191.266 107.287 190.973 106.281 190.387C105.281 189.796 104.509 188.973 103.964 187.919C103.42 186.86 103.147 185.632 103.147 184.235C103.147 182.826 103.42 181.595 103.964 180.542C104.509 179.482 105.281 178.66 106.281 178.074C107.287 177.482 108.48 177.186 109.859 177.186C111.238 177.186 112.428 177.482 113.428 178.074C114.434 178.66 115.209 179.482 115.754 180.542C116.298 181.595 116.571 182.826 116.571 184.235C116.571 185.632 116.298 186.86 115.754 187.919C115.209 188.973 114.434 189.796 113.428 190.387C112.428 190.973 111.238 191.266 109.859 191.266ZM109.877 188.337C110.504 188.337 111.028 188.159 111.448 187.804C111.868 187.443 112.185 186.952 112.398 186.33C112.617 185.709 112.726 185.002 112.726 184.208C112.726 183.415 112.617 182.708 112.398 182.087C112.185 181.465 111.868 180.974 111.448 180.613C111.028 180.252 110.504 180.071 109.877 180.071C109.243 180.071 108.711 180.252 108.279 180.613C107.853 180.974 107.53 181.465 107.311 182.087C107.098 182.708 106.991 183.415 106.991 184.208C106.991 185.002 107.098 185.709 107.311 186.33C107.53 186.952 107.853 187.443 108.279 187.804C108.711 188.159 109.243 188.337 109.877 188.337ZM122.457 187.076L122.465 182.539H123.016L127.384 177.364H131.725L125.857 184.217H124.96L122.457 187.076ZM119.03 191V172.818H122.812V191H119.03ZM127.552 191L123.54 185.061L126.061 182.388L131.983 191H127.552ZM140.834 177.364V180.205H132.622V177.364H140.834ZM134.486 174.097H138.268V186.81C138.268 187.159 138.321 187.431 138.428 187.626C138.534 187.816 138.682 187.949 138.872 188.026C139.067 188.103 139.292 188.141 139.546 188.141C139.724 188.141 139.902 188.127 140.079 188.097C140.257 188.061 140.393 188.035 140.487 188.017L141.082 190.831C140.893 190.891 140.627 190.959 140.283 191.036C139.94 191.118 139.523 191.169 139.032 191.186C138.12 191.222 137.321 191.101 136.634 190.822C135.954 190.544 135.424 190.112 135.045 189.526C134.667 188.94 134.48 188.201 134.486 187.307V174.097ZM149.365 191.266C147.963 191.266 146.755 190.982 145.743 190.414C144.737 189.84 143.962 189.029 143.417 187.982C142.873 186.928 142.6 185.682 142.6 184.244C142.6 182.841 142.873 181.61 143.417 180.551C143.962 179.491 144.728 178.666 145.717 178.074C146.711 177.482 147.877 177.186 149.214 177.186C150.114 177.186 150.951 177.331 151.727 177.621C152.508 177.905 153.189 178.334 153.769 178.908C154.355 179.482 154.81 180.205 155.136 181.075C155.461 181.939 155.624 182.951 155.624 184.111V185.15H144.11V182.806H152.064C152.064 182.261 151.946 181.779 151.709 181.359C151.472 180.938 151.144 180.61 150.724 180.373C150.309 180.131 149.827 180.009 149.277 180.009C148.702 180.009 148.193 180.142 147.75 180.409C147.312 180.669 146.968 181.021 146.72 181.465C146.471 181.903 146.344 182.391 146.338 182.93V185.158C146.338 185.833 146.462 186.416 146.711 186.907C146.965 187.399 147.323 187.777 147.785 188.044C148.247 188.31 148.794 188.443 149.427 188.443C149.848 188.443 150.232 188.384 150.582 188.266C150.931 188.147 151.23 187.97 151.478 187.733C151.727 187.496 151.916 187.206 152.046 186.863L155.544 187.094C155.367 187.934 155.003 188.668 154.452 189.295C153.908 189.917 153.204 190.402 152.339 190.751C151.481 191.095 150.49 191.266 149.365 191.266ZM158.092 191V177.364H161.759V179.743H161.901C162.149 178.897 162.567 178.257 163.153 177.825C163.739 177.387 164.413 177.168 165.177 177.168C165.366 177.168 165.57 177.18 165.789 177.204C166.008 177.228 166.201 177.26 166.366 177.301V180.657C166.189 180.604 165.943 180.557 165.63 180.515C165.316 180.474 165.029 180.453 164.768 180.453C164.212 180.453 163.715 180.574 163.277 180.817C162.845 181.054 162.502 181.385 162.247 181.811C161.998 182.238 161.874 182.729 161.874 183.285V191H158.092Z" fill="white"/>
</g>
<defs>
<filter id="filter0_d_73_25" x="0" y="0" width="250" height="240" filterUnits="userSpaceOnUse" color-interpolation-filters="sRGB">
<feFlood flood-opacity="0" result="BackgroundImageFix"/>
<feColorMatrix in="SourceAlpha" type="matrix" values="0 0 0 0 0 0 0 0 0 0 0 0 0 0 0 0 0 0 127 0" result="hardAlpha"/>
<feOffset dy="4"/>
<feGaussianBlur stdDeviation="2"/>
<feComposite in2="hardAlpha" operator="out"/>
<feColorMatrix type="matrix" values="0 0 0 0 0 0 0 0 0 0 0 0 0 0 0 0 0 0 0.25 0"/>
<feBlend mode="normal" in2="BackgroundImageFix" result="effect1_dropShadow_73_25"/>
<feBlend mode="normal" in="SourceGraphic" in2="effect1_dropShadow_73_25" result="shape"/>
</filter>
<clipPath id="clip0_73_25">
<rect width="96" height="107" fill="white" transform="translate(77 42)"/>
</clipPath>
</defs>
</svg>
