<svg width="250" height="240" viewBox="0 0 250 240" fill="none" xmlns="http://www.w3.org/2000/svg">
<g filter="url(#filter0_d_73_32)">
<rect x="4.5" y="0.5" width="241" height="231" rx="7.5" fill="#3AE365" stroke="#3AE365"/>
<path d="M107 67.75C107 56.7921 115.055 47.9167 125 47.9167C134.945 47.9167 143 56.7921 143 67.75C143 78.7079 134.945 87.5833 125 87.5833C115.055 87.5833 107 78.7079 107 67.75ZM147.5 147.083H152C156.95 147.083 161 142.621 161 137.167V113.466C161 107.913 158.255 102.805 153.755 100.277C151.82 99.1858 149.75 98.1446 147.5 97.2025V147.083ZM126.53 122.292L138.5 94.1779C134.315 93.1367 129.815 92.5417 125 92.5417C113.615 92.5417 103.805 96.0125 96.245 100.277C94.0493 101.523 92.2099 103.415 90.931 105.743C89.6521 108.071 88.9837 110.744 89 113.466V147.083H99.5301C98.5401 144.852 98 142.323 98 139.646C98 130.076 105.065 122.292 113.75 122.292H126.53ZM116 147.083L122.345 132.208H113.75C110.015 132.208 107 135.53 107 139.646C107 143.761 110.015 147.083 113.75 147.083H116Z" fill="white"/>
<path d="M85.5803 191V172.818H92.7536C94.1326 172.818 95.3074 173.082 96.2781 173.608C97.2487 174.129 97.9885 174.854 98.4975 175.783C99.0124 176.707 99.2699 177.772 99.2699 178.979C99.2699 180.187 99.0095 181.252 98.4886 182.175C97.9678 183.099 97.2132 183.818 96.2248 184.333C95.2423 184.848 94.0527 185.105 92.6559 185.105H88.0838V182.025H92.0344C92.7743 182.025 93.3839 181.897 93.8633 181.643C94.3486 181.382 94.7096 181.024 94.9464 180.569C95.189 180.107 95.3104 179.577 95.3104 178.979C95.3104 178.376 95.189 177.849 94.9464 177.399C94.7096 176.943 94.3486 176.591 93.8633 176.343C93.378 176.088 92.7624 175.961 92.0167 175.961H89.4244V191H85.5803ZM105.218 191.257C104.348 191.257 103.573 191.107 102.892 190.805C102.211 190.497 101.673 190.044 101.276 189.446C100.886 188.843 100.69 188.091 100.69 187.191C100.69 186.434 100.829 185.798 101.108 185.283C101.386 184.768 101.765 184.353 102.244 184.04C102.723 183.726 103.268 183.489 103.877 183.33C104.493 183.17 105.138 183.057 105.813 182.992C106.606 182.909 107.245 182.832 107.73 182.761C108.216 182.684 108.568 182.572 108.787 182.424C109.006 182.276 109.115 182.057 109.115 181.767V181.714C109.115 181.152 108.938 180.717 108.583 180.409C108.234 180.101 107.736 179.947 107.091 179.947C106.411 179.947 105.869 180.098 105.467 180.4C105.064 180.696 104.798 181.069 104.668 181.518L101.17 181.234C101.347 180.406 101.696 179.69 102.217 179.086C102.738 178.476 103.41 178.009 104.233 177.683C105.061 177.352 106.02 177.186 107.109 177.186C107.867 177.186 108.592 177.275 109.284 177.452C109.982 177.63 110.601 177.905 111.14 178.278C111.684 178.651 112.113 179.13 112.427 179.716C112.741 180.296 112.897 180.992 112.897 181.803V191H109.311V189.109H109.204C108.985 189.535 108.692 189.911 108.325 190.237C107.958 190.556 107.517 190.808 107.002 190.991C106.488 191.169 105.893 191.257 105.218 191.257ZM106.301 188.647C106.857 188.647 107.349 188.538 107.775 188.319C108.201 188.094 108.535 187.792 108.778 187.413C109.021 187.035 109.142 186.605 109.142 186.126V184.679C109.024 184.756 108.861 184.827 108.654 184.892C108.453 184.951 108.225 185.007 107.97 185.061C107.716 185.108 107.461 185.152 107.207 185.194C106.952 185.229 106.721 185.262 106.514 185.292C106.07 185.357 105.683 185.46 105.351 185.602C105.02 185.744 104.762 185.937 104.579 186.179C104.395 186.416 104.304 186.712 104.304 187.067C104.304 187.582 104.49 187.976 104.863 188.248C105.242 188.514 105.721 188.647 106.301 188.647ZM127.177 181.252L123.715 181.465C123.656 181.169 123.529 180.903 123.333 180.666C123.138 180.424 122.881 180.231 122.561 180.089C122.247 179.941 121.871 179.867 121.433 179.867C120.847 179.867 120.353 179.991 119.951 180.24C119.548 180.483 119.347 180.808 119.347 181.217C119.347 181.542 119.477 181.817 119.738 182.042C119.998 182.267 120.445 182.448 121.078 182.584L123.546 183.081C124.872 183.353 125.86 183.791 126.512 184.395C127.163 184.999 127.488 185.792 127.488 186.774C127.488 187.668 127.225 188.452 126.698 189.127C126.177 189.801 125.461 190.328 124.55 190.707C123.644 191.08 122.599 191.266 121.416 191.266C119.61 191.266 118.172 190.891 117.101 190.139C116.036 189.381 115.411 188.351 115.228 187.049L118.948 186.854C119.06 187.404 119.332 187.825 119.764 188.115C120.196 188.399 120.75 188.541 121.425 188.541C122.087 188.541 122.62 188.414 123.023 188.159C123.431 187.899 123.638 187.564 123.644 187.156C123.638 186.813 123.493 186.531 123.209 186.312C122.925 186.088 122.487 185.916 121.895 185.798L119.534 185.327C118.202 185.061 117.211 184.599 116.559 183.942C115.914 183.285 115.592 182.448 115.592 181.43C115.592 180.554 115.829 179.799 116.302 179.166C116.781 178.533 117.453 178.044 118.317 177.701C119.187 177.358 120.205 177.186 121.371 177.186C123.094 177.186 124.449 177.55 125.437 178.278C126.432 179.006 127.012 179.997 127.177 181.252ZM129.87 191V177.364H133.652V191H129.87ZM131.769 175.606C131.207 175.606 130.725 175.419 130.322 175.047C129.926 174.668 129.728 174.215 129.728 173.688C129.728 173.167 129.926 172.721 130.322 172.348C130.725 171.969 131.207 171.779 131.769 171.779C132.332 171.779 132.811 171.969 133.208 172.348C133.61 172.721 133.811 173.167 133.811 173.688C133.811 174.215 133.61 174.668 133.208 175.047C132.811 175.419 132.332 175.606 131.769 175.606ZM142.896 191.266C141.493 191.266 140.286 190.982 139.273 190.414C138.267 189.84 137.492 189.029 136.947 187.982C136.403 186.928 136.131 185.682 136.131 184.244C136.131 182.841 136.403 181.61 136.947 180.551C137.492 179.491 138.258 178.666 139.247 178.074C140.241 177.482 141.407 177.186 142.745 177.186C143.644 177.186 144.482 177.331 145.257 177.621C146.038 177.905 146.719 178.334 147.299 178.908C147.885 179.482 148.341 180.205 148.666 181.075C148.992 181.939 149.154 182.951 149.154 184.111V185.15H137.64V182.806H145.594C145.594 182.261 145.476 181.779 145.239 181.359C145.003 180.938 144.674 180.61 144.254 180.373C143.84 180.131 143.357 180.009 142.807 180.009C142.233 180.009 141.724 180.142 141.28 180.409C140.842 180.669 140.499 181.021 140.25 181.465C140.001 181.903 139.874 182.391 139.868 182.93V185.158C139.868 185.833 139.993 186.416 140.241 186.907C140.496 187.399 140.854 187.777 141.315 188.044C141.777 188.31 142.324 188.443 142.958 188.443C143.378 188.443 143.763 188.384 144.112 188.266C144.461 188.147 144.76 187.97 145.009 187.733C145.257 187.496 145.446 187.206 145.577 186.863L149.075 187.094C148.897 187.934 148.533 188.668 147.983 189.295C147.438 189.917 146.734 190.402 145.87 190.751C145.011 191.095 144.02 191.266 142.896 191.266ZM155.404 183.116V191H151.623V177.364H155.227V179.77H155.387C155.689 178.976 156.195 178.349 156.905 177.887C157.615 177.42 158.476 177.186 159.488 177.186C160.435 177.186 161.261 177.393 161.965 177.808C162.67 178.222 163.217 178.814 163.608 179.583C163.998 180.347 164.194 181.258 164.194 182.317V191H160.412V182.992C160.417 182.158 160.204 181.507 159.772 181.039C159.34 180.566 158.746 180.329 157.988 180.329C157.479 180.329 157.029 180.438 156.638 180.657C156.254 180.876 155.952 181.196 155.733 181.616C155.52 182.03 155.41 182.531 155.404 183.116Z" fill="white"/>
</g>
<defs>
<filter id="filter0_d_73_32" x="0" y="0" width="250" height="240" filterUnits="userSpaceOnUse" color-interpolation-filters="sRGB">
<feFlood flood-opacity="0" result="BackgroundImageFix"/>
<feColorMatrix in="SourceAlpha" type="matrix" values="0 0 0 0 0 0 0 0 0 0 0 0 0 0 0 0 0 0 127 0" result="hardAlpha"/>
<feOffset dy="4"/>
<feGaussianBlur stdDeviation="2"/>
<feComposite in2="hardAlpha" operator="out"/>
<feColorMatrix type="matrix" values="0 0 0 0 0 0 0 0 0 0 0 0 0 0 0 0 0 0 0.25 0"/>
<feBlend mode="normal" in2="BackgroundImageFix" result="effect1_dropShadow_73_32"/>
<feBlend mode="normal" in="SourceGraphic" in2="effect1_dropShadow_73_32" result="shape"/>
</filter>
</defs>
</svg>
