<svg width="28" height="25" viewBox="0 0 28 25" fill="none" xmlns="http://www.w3.org/2000/svg">
<path d="M12.5 24.5833C5.59625 24.5833 0 19.1736 0 12.5C0 5.82634 5.59625 0.416629 12.5 0.416629C14.4408 0.41522 16.3552 0.851355 18.0912 1.69038C19.8271 2.52941 21.3367 3.74822 22.5 5.24996H19.1125C17.669 4.01959 15.889 3.21798 13.9859 2.94132C12.0828 2.66466 10.1376 2.92471 8.38361 3.69026C6.62964 4.45581 5.14144 5.69434 4.09759 7.25723C3.05374 8.82012 2.49859 10.641 2.49875 12.5013C2.49891 14.3616 3.05437 16.1824 4.09849 17.7451C5.14261 19.3078 6.63102 20.5461 8.38513 21.3114C10.1392 22.0767 12.0845 22.3364 13.9875 22.0594C15.8906 21.7825 17.6705 20.9806 19.1138 19.75H22.5012C21.3378 21.2519 19.828 22.4708 18.0919 23.3098C16.3557 24.1488 14.441 24.5849 12.5 24.5833ZM21.25 17.3333V13.7083H11.25V11.2916H21.25V7.66663L27.5 12.5L21.25 17.3333Z" fill="#292D32"/>
</svg>
